<svg width="180" height="327" viewBox="0 0 180 327" fill="none" xmlns="http://www.w3.org/2000/svg">
<g id="RightArm">
<ellipse id="Ellipse 6" cx="48.6647" cy="139.5" rx="48.6647" ry="139.5" transform="matrix(-0.965926 0.258819 0.258819 0.965926 94.0129 0)" fill="#00CBD9"/>
<ellipse id="Ellipse 7" cx="50.5" cy="46.5" rx="50.5" ry="46.5" transform="matrix(-1 0 0 1 173.223 231)" fill="#00CBD9"/>
<ellipse id="Ellipse 8" cx="10.2383" cy="19.8502" rx="10.2383" ry="19.8502" transform="matrix(-0.829038 0.559193 0.559193 0.829038 83.0233 271)" fill="#D9D9D9"/>
<ellipse id="Ellipse 9" cx="10.2383" cy="19.8502" rx="10.2383" ry="19.8502" transform="matrix(-0.052336 0.99863 0.99863 0.052336 103.577 304)" fill="#D9D9D9"/>
<ellipse id="Ellipse 10" cx="10.2383" cy="19.8502" rx="10.2383" ry="19.8502" transform="matrix(0.882948 0.469472 0.469472 -0.882948 142.505 307.053)" fill="#D9D9D9"/>
<ellipse id="Ellipse 11" cx="10.2383" cy="19.8502" rx="10.2383" ry="19.8502" transform="matrix(0.798636 -0.601815 -0.601815 -0.798636 158.87 278.029)" fill="#D9D9D9"/>
</g>
</svg>
